<?xml version="1.0" encoding="UTF-8" standalone="no"?>
<!-- Created with Inkscape (http://www.inkscape.org/) -->

<svg
   xmlns:dc="http://purl.org/dc/elements/1.1/"
   xmlns:cc="http://creativecommons.org/ns#"
   xmlns:rdf="http://www.w3.org/1999/02/22-rdf-syntax-ns#"
   xmlns:svg="http://www.w3.org/2000/svg"
   xmlns="http://www.w3.org/2000/svg"
   xmlns:sodipodi="http://sodipodi.sourceforge.net/DTD/sodipodi-0.dtd"
   xmlns:inkscape="http://www.inkscape.org/namespaces/inkscape"
   width="39"
   height="22.781706"
   id="svg2"
   version="1.1"
   inkscape:version="0.48.4 r9939"
   sodipodi:docname="Shahin.svg">
  <defs
     id="defs4" />
  <sodipodi:namedview
     id="base"
     pagecolor="#ffffff"
     bordercolor="#666666"
     borderopacity="1.0"
     inkscape:pageopacity="0.0"
     inkscape:pageshadow="2"
     inkscape:zoom="11.457418"
     inkscape:cx="20.023678"
     inkscape:cy="28.274329"
     inkscape:document-units="px"
     inkscape:current-layer="g4192"
     showgrid="false"
     inkscape:window-width="1020"
     inkscape:window-height="732"
     inkscape:window-x="0"
     inkscape:window-y="16"
     inkscape:window-maximized="0"
     showguides="true"
     fit-margin-top="0"
     fit-margin-left="0"
     fit-margin-right="0"
     fit-margin-bottom="0" />
  <metadata
     id="metadata7">
    <rdf:RDF>
      <cc:Work
         rdf:about="">
        <dc:format>image/svg+xml</dc:format>
        <dc:type
           rdf:resource="http://purl.org/dc/dcmitype/StillImage" />
      </cc:Work>
    </rdf:RDF>
  </metadata>
  <g
     inkscape:label="Layer 1"
     inkscape:groupmode="layer"
     id="layer1"
     transform="translate(-0.71875,-1017.2187)"
     style="display:inline">
    <g
       id="g4192">
      <path
         sodipodi:type="arc"
         style="opacity:0;fill:#ff0000;stroke:#fe0000;stroke-width:0.25;stroke-linecap:round;stroke-linejoin:round;stroke-miterlimit:4;stroke-opacity:1;stroke-dasharray:1, 1;stroke-dashoffset:10"
         id="path3408"
         sodipodi:cx="21.149426"
         sodipodi:cy="15.862069"
         sodipodi:rx="0.8429119"
         sodipodi:ry="1.1494253"
         d="m 21.992337,15.862069 c 0,0.63481 -0.377384,1.149425 -0.842911,1.149425 -0.465528,0 -0.842912,-0.514615 -0.842912,-1.149425 0,-0.63481 0.377384,-1.149425 0.842912,-1.149425 0.465527,0 0.842911,0.514615 0.842911,1.149425 z"
         transform="translate(6.1911636e-6,1012.3623)" />
      <path
         sodipodi:nodetypes="ccccccccccccccc"
         inkscape:connector-curvature="0"
         id="path2987"
         d="m 29.566304,1023.8662 c 0,0 -22.2350893,4.422 -28.80793296,5.5151 0,0 11.11326296,-1.0759 2.88768086,4.3439 0,0 5.1835805,-2.4581 3.9111867,-16.4762 0,0 0.2409838,15.5469 -1.4663311,19.0668 0,0 3.9533435,-6.2657 3.6571209,-1.0579 0,0 0.4456226,2.2321 3.2252106,-2.6499 0,0 -3.2391394,4.6719 0.973417,2.3851 0,0 1.239422,-4.0454 -0.978743,-2.3552 0,0 2.051682,-2.1659 1.016816,2.7328 0,0 2.329933,3.4959 2.976104,-18.1092 0,0 -0.749114,15.2896 -1.198151,18.238 0,0 3.146452,-6.2111 3.194817,-0.7024 0,0 0.841991,2.8611 1.633261,-2.218 0,0 0.03745,5.3473 1.358871,3.3125"
         style="fill:none;stroke:#268bd2;stroke-width:1;stroke-linecap:butt;stroke-linejoin:miter;stroke-opacity:1" />
      <path
         inkscape:connector-curvature="0"
         id="path2991"
         d="m 22.38775,1032.7818 -0.148111,2.6039 c 0,0 2.210929,-5.6615 3.473913,-1.3698 0,0 4.098439,10.2604 13.839567,3.2789"
         style="fill:none;stroke:#268bd2;stroke-width:1;stroke-linecap:butt;stroke-linejoin:miter;stroke-opacity:1" />
      <path
         transform="matrix(0.53318023,0,0,0.64153952,9.866734,1018.3167)"
         d="m 21.072796,17.241379 a 1.2260536,1.1494253 0 1 1 -2.452107,0 1.2260536,1.1494253 0 1 1 2.452107,0 z"
         sodipodi:ry="1.1494253"
         sodipodi:rx="1.2260536"
         sodipodi:cy="17.241379"
         sodipodi:cx="19.846743"
         id="path4186"
         style="fill:#268bd2;fill-opacity:1;stroke:#268bd2;stroke-width:1.2823676;stroke-linecap:round;stroke-linejoin:round;stroke-miterlimit:4;stroke-opacity:0;stroke-dasharray:1, 1;stroke-dashoffset:10"
         sodipodi:type="arc" />
    </g>
  </g>
</svg>
